<?xml version="1.0" encoding="UTF-8"?>
<svg width="94px" height="94px" viewBox="0 0 94 94" version="1.1" xmlns="http://www.w3.org/2000/svg" xmlns:xlink="http://www.w3.org/1999/xlink">
    <!-- Generator: Sketch 48.2 (47327) - http://www.bohemiancoding.com/sketch -->
    <title>Group</title>
    <desc>Created with Sketch.</desc>
    <defs></defs>
    <g id="IOS-menu-more-new-menu" stroke="none" stroke-width="1" fill="none" fill-rule="evenodd" transform="translate(-114.000000, -33.000000)">
        <g id="Group" transform="translate(116.000000, 35.000000)">
            <circle id="Oval" stroke="#FFFFFF" stroke-width="1.5" opacity="0.722860031" cx="45" cy="45" r="45.75"></circle>
            <g id="Page-1" transform="translate(14.000000, 28.000000)">
                <rect id="Rectangle-2" fill="#FFFFFF" x="1" y="26" width="61" height="1"></rect>
                <rect id="Rectangle-2-Copy" fill="#FFFFFF" x="1" y="33" width="61" height="1"></rect>
                <path d="M60.9029796,16.1368 L57.8447347,3.99146667 C55.3103265,3.99146667 52.980898,2.6648 52.6506531,1.07546667 C52.6202857,0.935466667 52.6266122,0.8008 52.6291429,0.666133333 L10.3021224,0.666133333 C10.3046531,0.8008 10.3109796,0.935466667 10.2818776,1.07546667 C9.95416327,2.6648 7.62853061,3.99146667 5.09412245,3.99146667 C5.01061224,3.99146667 4.93722449,3.97813333 4.85497959,3.97546667 L1.78787755,16.1568 C1.8802449,16.1528 1.97134694,16.1368 2.06371429,16.1368 C4.88914286,16.1368 6.83265306,17.8314667 6.38726531,19.9901333 L56.5882857,19.9901333 C56.1378367,17.8314667 58.077551,16.1368 60.9029796,16.1368 Z" id="Stroke-1" stroke="#FFFFFF"></path>
                <path d="M60.9029796,16.1368 C58.077551,16.1368 56.1378367,17.8314667 56.5882857,19.9901333 L61.8734694,19.9901333 L60.9029796,16.1368 Z" id="Stroke-3" stroke="#FFFFFF"></path>
                <path d="M2.06384082,16.1368 C1.97147347,16.1368 1.87910612,16.1528 1.78800408,16.1568 L0.82257551,19.9901333 L6.38739184,19.9901333 C6.83277959,17.8314667 4.88926939,16.1368 2.06384082,16.1368 Z" id="Stroke-5" stroke="#FFFFFF"></path>
                <path d="M10.2821306,1.0756 C10.3099673,0.9356 10.3049061,0.800933333 10.3023755,0.666266667 L5.68780408,0.666266667 L4.85523265,3.9756 C4.93621224,3.97826667 5.01086531,3.9916 5.0931102,3.9916 C7.62751837,3.9916 9.95441633,2.66493333 10.2821306,1.0756 Z" id="Stroke-7" stroke="#FFFFFF"></path>
                <path d="M52.6290163,0.666666667 C52.6264857,0.801333333 52.6201592,0.934666667 52.6505265,1.076 C52.9807714,2.66533333 55.3102,3.99066667 57.8446082,3.99066667 L57.0069755,0.666666667 L52.6290163,0.666666667 Z" id="Stroke-9" stroke="#FFFFFF"></path>
                <path d="M36.9943878,9.49226667 C37.1057347,11.6789333 34.5801837,13.5176 31.3473265,13.5176 C28.1157347,13.5176 25.5901837,11.6789333 25.7015306,9.49226667 C25.8090816,7.38826667 28.3346327,5.74026667 31.3473265,5.74026667 C34.3600204,5.74026667 36.8868367,7.38826667 36.9943878,9.49226667 Z" id="Stroke-11" stroke="#FFFFFF"></path>
                <path d="M18.9378367,9.49226667 C18.848,10.2909333 17.826898,10.9469333 16.6590204,10.9469333 C15.4898776,10.9469333 14.6408571,10.2909333 14.7610612,9.49226667 C14.88,8.70426667 15.8973061,8.07493333 17.0348163,8.07493333 C18.1735918,8.07493333 19.0251429,8.70426667 18.9378367,9.49226667" id="Fill-13" fill="#FFFFFF"></path>
                <path d="M47.9348571,9.49226667 C48.0537959,10.2909333 47.2060408,10.9469333 46.036898,10.9469333 C44.8690204,10.9469333 43.8491837,10.2909333 43.7580816,9.49226667 C43.6707755,8.70426667 44.5223265,8.07493333 45.661102,8.07493333 C46.7998776,8.07493333 47.8159184,8.70426667 47.9348571,9.49226667" id="Fill-15" fill="#FFFFFF"></path>
            </g>
        </g>
    </g>
</svg>