<?xml version="1.0" encoding="UTF-8"?>
<svg width="19px" height="20px" viewBox="0 0 19 20" version="1.1" xmlns="http://www.w3.org/2000/svg" xmlns:xlink="http://www.w3.org/1999/xlink">
    <!-- Generator: Sketch 48 (47235) - http://www.bohemiancoding.com/sketch -->
    <title>arrow/up</title>
    <desc>Created with Sketch.</desc>
    <defs></defs>
    <g id="Symbols" stroke="none" stroke-width="1" fill="none" fill-rule="evenodd">
        <g id="arrow/up" fill="#39C900">
            <path d="M9.78922727,2.11986364 C9.71518182,2.04581818 9.61290909,2 9.5,2 C9.38709091,2 9.28481818,2.04581818 9.21077273,2.11986364 L2.11986364,8.21077273 C2.04581818,8.28481818 2,8.38709091 2,8.5 C2,8.72622727 2.18327273,8.90909091 2.40909091,8.90909091 C2.522,8.90909091 2.62427273,8.86368182 2.69831818,8.78922727 L9.09090909,3.39663636 L9.09090909,18.5909091 C9.09090909,18.8171364 9.27418182,19 9.5,19 C9.72581818,19 9.90909091,18.8171364 9.90909091,18.5909091 L9.90909091,3.39663636 L16.3016818,8.78922727 C16.3757273,8.86368182 16.478,8.90909091 16.5909091,8.90909091 C16.8167273,8.90909091 17,8.72622727 17,8.5 C17,8.38709091 16.9541818,8.28481818 16.8801364,8.21077273 L9.78922727,2.11986364 Z" id="Page-1" transform="translate(9.500000, 10.500000) rotate(-360.000000) translate(-9.500000, -10.500000) "></path>
        </g>
    </g>
</svg>