<?xml version="1.0" encoding="UTF-8"?>
<svg width="93px" height="93px" viewBox="0 0 93 93" version="1.1" xmlns="http://www.w3.org/2000/svg" xmlns:xlink="http://www.w3.org/1999/xlink">
    <!-- Generator: Sketch 48.2 (47327) - http://www.bohemiancoding.com/sketch -->
    <title>empty state activity</title>
    <desc>Created with Sketch.</desc>
    <defs></defs>
    <g id="empty-state-filters" stroke="none" stroke-width="1" fill="none" fill-rule="evenodd" transform="translate(-113.000000, -170.000000)">
        <g id="empty-state-activity" transform="translate(115.000000, 172.000000)">
            <circle id="Oval" stroke="#515D6F" stroke-width="1.5" cx="44.4708995" cy="44.4708995" r="45.2208995"></circle>
            <path d="M55.707,45.3196364 C55.526,45.1221818 55.276,45 55,45 C54.447,45 54,45.4876364 54,46.0909091 C54,46.392 54.112,46.6647273 54.293,46.8621818 L62.586,55.9090909 L23,55.9090909 C22.447,55.9090909 22,56.3967273 22,57 C22,57.6032727 22.447,58.0909091 23,58.0909091 L62.586,58.0909091 L54.293,67.1378182 C54.112,67.3363636 54,67.608 54,67.9090909 C54,68.5123636 54.447,69 55,69 C55.276,69 55.526,68.8789091 55.707,68.6803636 L65.707,57.7712727 C65.889,57.5738182 66,57.3010909 66,57 C66,56.6989091 65.889,56.4272727 65.707,56.2287273 L55.707,45.3196364 Z" id="Fill-1" fill="#515D6F"></path>
            <path d="M62.8892887,34.9090909 L25.414,34.9090909 L33.707,25.8621818 C33.888,25.6636364 34,25.392 34,25.0909091 C34,24.4876364 33.553,24 33,24 C32.724,24 32.474,24.1210909 32.293,24.3196364 L22.293,35.2287273 C22.111,35.4261818 22,35.6989091 22,36 C22,36.3010909 22.111,36.5727273 22.293,36.7712727 L32.293,47.6803636 C32.474,47.8778182 32.724,48 33,48 C33.553,48 34,47.5123636 34,46.9090909 C34,46.608 33.888,46.3352727 33.707,46.1378182 L25.414,37.0909091 L65,37.0909091 C65.553,37.0909091 66,36.6032727 66,36 C66,35.3967273 65.553,34.9090909 65,34.9090909 L62.8892887,34.9090909 Z" id="Fill-3" fill="#515D6F"></path>
        </g>
    </g>
</svg>