<?xml version="1.0" encoding="utf-8"?>
<!-- Generator: Adobe Illustrator 21.0.2, SVG Export Plug-In . SVG Version: 6.00 Build 0)  -->
<svg version="1.1" id="Layer_1" xmlns="http://www.w3.org/2000/svg" xmlns:xlink="http://www.w3.org/1999/xlink" x="0px" y="0px"
	 viewBox="0 0 100 100" style="enable-background:new 0 0 100 100;" xml:space="preserve">
<style type="text/css">
	.st0{fill:none;stroke:#FFFFFF;stroke-width:1.3924;stroke-linecap:round;}
	.st1{fill:none;stroke:#FFFFFF;stroke-width:1.2708;stroke-linecap:round;}
	.st2{fill:none;stroke:#FFFFFF;stroke-width:1.2597;stroke-linecap:round;}
	.st3{fill:none;stroke:#FFFFFF;stroke-width:1.3924;}
	.st4{fill:#FFFFFF;stroke:#FFFFFF;stroke-miterlimit:10;}
</style>
<g id="face-id-_touch-id-">
	<g id="face-ID-verification" transform="translate(-116.000000, -58.000000)">
		<g id="Group-3" transform="translate(116.000000, 60.000000)">
			<g id="Group" transform="translate(0.000000, 10.000000)">
				<path id="Stroke-1" class="st0" d="M0.8,25.3v-9.5C0.8,8.2,7,2,14.6,2h9.5"/>
				<path id="Stroke-3" class="st0" d="M83.5,25.3v-3.9 M69.7,2h-9.5"/>
				<path id="Stroke-5" class="st0" d="M0.8,61.4v9.5c0,7.6,6.2,13.8,13.8,13.8h9.5"/>
				<path id="Stroke-7" class="st0" d="M83.5,61.4v9.5c0,7.6-6.2,13.8-13.8,13.8h-9.5"/>
				<g id="Group-2" transform="translate(26.000000, 25.000000)">
					<path id="Stroke-9" class="st1" d="M-1,9.5V0.2"/>
					<path id="Stroke-11" class="st1" d="M33.3,9.5V0.2"/>
					<path id="Stroke-13" class="st2" d="M13.2,18.8h1.7c1.8,0,3.4-1.5,3.4-3.4V0.2"/>
					<path id="Stroke-15" class="st0" d="M30.1,31c-3.9,3.4-8.9,5.5-14.5,5.5c-5.5,0-10.5-2-14.3-5.3"/>
				</g>
			</g>
			<circle id="Oval" class="st3" cx="84.6" cy="15.9" r="14.6"/>
			<path id="Path" class="st4" d="M82.4,20.7L78,16.2c-0.1-0.1-0.2-0.1-0.3-0.1c-0.3,0-0.5,0.2-0.5,0.5c0,0.1,0.1,0.3,0.1,0.3
				l4.8,4.8c0.1,0.1,0.2,0.1,0.3,0.1c0.1,0,0.3-0.1,0.3-0.1l0,0l8-8.4l0,0l0.7-0.7l0,0l1.4-1.4l0,0c0.1-0.1,0.1-0.2,0.1-0.3
				c0-0.3-0.2-0.5-0.5-0.5c-0.1,0-0.3,0.1-0.3,0.1l0,0l-1.2,1.3l0,0l-0.7,0.7l0,0L82.4,20.7z"/>
		</g>
	</g>
</g>
</svg>
