<?xml version="1.0" encoding="utf-8"?>
<!-- Generator: Adobe Illustrator 21.0.2, SVG Export Plug-In . SVG Version: 6.00 Build 0)  -->
<svg version="1.1" id="Layer_1" xmlns="http://www.w3.org/2000/svg" xmlns:xlink="http://www.w3.org/1999/xlink" x="0px" y="0px"
	 viewBox="0 0 95 94" style="enable-background:new 0 0 95 94;" xml:space="preserve">
<style type="text/css">
	.st0{fill:none;stroke:#515D6F;stroke-width:1.5;}
	.st1{fill:#DF0303;}
	.st2{clip-path:url(#SVGID_2_);}
	.st3{fill:none;stroke:#636B78;stroke-width:1.5;stroke-miterlimit:10;}
</style>
<g id="error-pages">
	<g id="no-internet--page" transform="translate(-113.000000, -59.000000)">
		<g id="icon" transform="translate(115.000000, 61.000000)">
			<path class="st0" d="M87.7,28.6c2,5.2,3,10.7,3,16.4c0,25.3-20.5,45.8-45.8,45.8S-0.8,70.3-0.8,45S19.7-0.8,45-0.8
				c8.5,0,16.6,2.3,23.6,6.6"/>
			<ellipse id="Oval-2_2_" class="st0" cx="76.5" cy="19" rx="15.5" ry="15"/>
			<g id="warning" transform="translate(68.000000, 9.000000)">
				<path id="Fill-1" class="st1" d="M7.3,9.9V5.3c0-0.4,0.4-0.6,0.8-0.6c0.5,0,0.8,0.3,0.8,0.6v4.6c0,0.4-0.4,0.6-0.8,0.6
					C7.6,10.5,7.3,10.2,7.3,9.9z"/>
				<g id="Group-5" transform="translate(0.000000, 0.666667)">
					<path id="Fill-2" class="st1" d="M8.2,12.8c-0.2,0-0.4-0.1-0.6-0.2c-0.2-0.1-0.2-0.4-0.2-0.6c0-0.2,0.1-0.4,0.2-0.6
						c0.3-0.3,0.8-0.3,1.2,0C8.9,11.6,9,11.8,9,12c0,0.2-0.1,0.4-0.2,0.6C8.6,12.7,8.4,12.8,8.2,12.8"/>
					<path id="Fill-4" class="st1" d="M8.4,0.1C7.8,0.1,7.2,0.5,6.9,1L0.3,12.7c-0.3,0.6-0.3,1.2,0,1.8c0.3,0.6,0.9,0.9,1.5,0.9H15
						c0.6,0,1.2-0.3,1.5-0.9c0.3-0.6,0.3-1.2,0-1.8L9.9,1C9.6,0.5,9.1,0.1,8.4,0.1z M15,16.5H1.8c-1,0-1.9-0.5-2.5-1.5
						c-0.5-0.9-0.5-2,0-2.9L6,0.5C6.5-0.4,7.4-1,8.4-1c1,0,1.9,0.5,2.5,1.5l6.6,11.7c0.5,0.9,0.5,2,0,2.9C17,16,16,16.5,15,16.5z"/>
				</g>
			</g>
		</g>
	</g>
	<g>
		<defs>
			<rect id="SVGID_1_" x="-112" y="-237" width="320" height="568"/>
		</defs>
		<clipPath id="SVGID_2_">
			<use xlink:href="#SVGID_1_"  style="overflow:visible;"/>
		</clipPath>
		<g class="st2">
			<path class="st3" d="M47.5,52c7.3,0,12.2-5.3,12.2-12.2v-7c0-7-5-12.2-12.2-12.2s-12.2,5.3-12.2,12.2v7
				C35.3,46.8,40.2,52,47.5,52z"/>
			<path class="st3" d="M35,53.2l-0.4,0.1C27.5,55.7,23,62.8,23,70v3.5h49V70c0-7.2-5-14.3-12.1-16.6"/>
		</g>
	</g>
</g>
</svg>
