<?xml version="1.0" encoding="UTF-8"?>
<svg width="96px" height="96px" viewBox="0 0 96 96" version="1.1" xmlns="http://www.w3.org/2000/svg" xmlns:xlink="http://www.w3.org/1999/xlink">
    <!-- Generator: Sketch 48.2 (47327) - http://www.bohemiancoding.com/sketch -->
    <title>icon</title>
    <desc>Created with Sketch.</desc>
    <defs></defs>
    <g id="homepage--individual-icon" stroke="none" stroke-width="1" fill="none" fill-rule="evenodd" transform="translate(-113.000000, -32.000000)">
        <g id="icon" transform="translate(116.000000, 35.000000)">
            <circle id="Oval" stroke="#FFFFFF" stroke-width="3" opacity="0.722860031" cx="45" cy="45" r="46.5"></circle>
            <circle id="Oval" fill="#B9C8DB" cx="45" cy="45" r="42"></circle>
            <g id="Untitled-1" transform="translate(20.000000, 13.000000)">
                <path d="M51,66 L49.7406449,58.0912371 C49.274876,54.9881763 46.2802445,47.910887 39.1519135,46.8493883 C37.8287916,46.6524287 34.3327073,46.685571 32.572927,46.3437324 L25.5,46 L18.0251595,46 C18.0251595,46 13.1374026,46.6666325 11.7523033,46.8493883 C10.9859958,46.9511135 10.2736384,47.1079701 9.61151538,47.3111921 C9.43711711,47.3647192 9.26620389,47.421463 9.09870781,47.4812632 C5.84856011,48.6416455 3.88506241,50.952862 2.71214389,53.2445679 C2.19840701,54.2483323 1.83633715,55.2483537 1.58425099,56.1462917 C1.37802543,56.880873 1.24540622,57.5471351 1.16357193,58.0912371 C0.910278004,59.8128682 0.720307556,61.1040916 0.593660591,61.9649071 C0.461736015,62.8615944 0.263849152,64.2066254 0,66 C8.63428122,71.8359663 17.1342812,74.8359663 25.5,75 C33.8657188,75.1640337 42.3657188,72.1640337 51,66 Z" id="Fill-1" fill="#FFFFFE"></path>
                <path d="M50.8980554,65.5862667 C50.640853,63.9207046 50.2550496,61.4223614 49.7406449,58.0912371 C49.274876,54.9881763 46.2802445,47.910887 39.1519135,46.8493883 C37.8287916,46.6524287 34.3327073,46.685571 32.572927,46.3437324 L25.5,46 L18.0251595,46 C18.0251595,46 13.1374026,46.6666325 11.7523033,46.8493883 C3.74877746,47.911834 1.63027994,54.9881763 1.16357193,58.0912371 C0.689834227,60.9948089 0.334530947,64.1724878 0.0976620933,65.6242737" id="Stroke-3" stroke="#4D5662" stroke-width="1.5" stroke-linejoin="round"></path>
                <path d="M8.2497087,69.6686086 L10,58" id="Stroke-5" stroke="#4D5662" stroke-width="1.5" stroke-linejoin="round"></path>
                <path d="M42.8643915,70.4292768 L41,58" id="Stroke-7" stroke="#4D5662" stroke-width="1.5" stroke-linejoin="round"></path>
                <path d="M8.84940199,23.0516087 C7.75505934,22.7932131 6.99736989,23.4194774 7.00000686,26.9009152 C7.0052808,30.3833393 8.36244148,33.3765868 10,32.9613785 L11,29 L11,25 L8.84940199,23.0516087 Z" id="Fill-8" fill="#FFFFFE"></path>
                <path d="M8.84940199,23.0516087 C7.75505934,22.7932131 6.99736989,23.4194774 7.00000686,26.9009152 C7.0052808,30.3833393 8.36244148,33.3765868 10,32.9613785" id="Stroke-9" stroke="#4D5662" stroke-width="1.5" stroke-linejoin="round"></path>
                <path d="M24.2527574,43 L18.1700089,43 C18.1042596,43.0484797 18.0666886,43.0756964 18,43.1241761 L18,46.4879864 C18.8021413,48.6432065 21.2329865,50.4820327 24.2527574,50.9072932 C24.6829456,50.9685307 25.1253444,51 25.5752574,51 C29.1924075,51 32.0374732,48.9944716 32.9523276,46.531363 L32.9523276,43.4388688 C32.9016067,43.305337 33.0462552,43.1292792 32.984263,43 L24.2527574,43" id="Fill-10" fill="#FFFFFE"></path>
                <path d="M24.2527574,43 L18.1700089,43 C18.1042596,43.0484797 18.0666886,43.0756964 18,43.1241761 L18,46.4879864 C18.8021413,48.6432065 21.2329865,50.4820327 24.2527574,50.9072932 C24.6829456,50.9685307 25.1253444,51 25.5752574,51 C29.1924075,51 32.0374732,48.9944716 32.9523276,46.531363 L32.9523276,43.4388688 C32.9016067,43.305337 33.0462552,43.1292792 32.984263,43 L24.2527574,43 Z" id="Stroke-11" stroke="#4D5662" stroke-width="1.5" stroke-linejoin="round"></path>
                <path d="M42.1523513,23.0516087 C43.2466895,22.7932131 44.0043759,23.4194774 43.999981,26.9009152 C43.995586,30.3833393 42.6366729,33.3765868 41,32.9613785" id="Fill-12" fill="#FFFFFE"></path>
                <path d="M42.1523513,23.0516087 C43.2466895,22.7932131 44.0043759,23.4194774 43.999981,26.9009152 C43.995586,30.3833393 42.6366729,33.3765868 41,32.9613785" id="Stroke-13" stroke="#4D5662" stroke-width="1.5" stroke-linejoin="round"></path>
                <path d="M42.9893659,17.7043944 C42.7767888,3.47734802 30.5559725,3.0886773 26.4990583,3 C26.1457081,3.00849038 25.7281123,3.01886751 25.2623325,3.03962177 C20.3995152,3.2622584 10.2043216,4.71977359 10.0106403,17.7043944 C9.79711851,31.9323841 12.8459453,37.1492508 14.7714206,39.2756192 C16.696896,41.4038744 18.6979543,43.3283605 22.6471628,44.351923 C23.4086609,45.113227 24.2022818,45.5273689 25.2623325,45.7811369 C25.6374128,45.8717009 26.0465055,45.9415107 26.4990583,46 C28.2327419,45.7773634 29.3201915,45.382089 30.3528434,44.351923 C34.3029967,43.3283605 36.3021654,41.4038744 38.2276407,39.2756192 C40.1521713,37.1492508 43.2028877,31.9323841 42.9893659,17.7043944" id="Fill-14" fill="#FFFFFE"></path>
                <path d="M11,31 C12.0242982,35.6491007 13.5640742,37.9911644 14.7082068,39.25213 C16.6464795,41.3878195 18.6608376,43.3190281 22.6362939,44.346166 C23.4028532,45.1101294 24.2017487,45.5257179 25.2688449,45.7803724 C25.6464182,45.8712528 26.0582298,45.9413064 26.5137905,46 C28.2589968,45.7765857 29.3536739,45.3799306 30.3931891,44.346166 C34.3695966,43.3190281 36.3820525,41.3878195 38.3203252,39.25213 C39.453996,38.0034711 40.9757018,35.6917009 42,31.1278006" id="Fill-15" fill="#FFFFFE"></path>
                <path d="M11,31 C12.0242982,35.6491007 13.5640742,37.9911644 14.7082068,39.25213 C16.6464795,41.3878195 18.6608376,43.3190281 22.6362939,44.346166 C23.4028532,45.1101294 24.2017487,45.5257179 25.2688449,45.7803724 C25.6464182,45.8712528 26.0582298,45.9413064 26.5137905,46 C28.2589968,45.7765857 29.3536739,45.3799306 30.3931891,44.346166 C34.3695966,43.3190281 36.3820525,41.3878195 38.3203252,39.25213 C39.453996,38.0034711 40.9757018,35.6917009 42,31.1278006" id="Stroke-16" stroke="#4D5662" stroke-width="1.5" stroke-linejoin="round"></path>
                <path d="M39.0103607,6.14834156 C37.884502,4.46485753 34.3032626,0.204085686 26.1148534,0.00505309077 C25.6523282,-0.00600427561 25.2031268,0.00136730198 24.764394,0.0244034819 C17.4287062,0.400353939 13.3088057,5.24808765 11.3768589,6.74359645 C9.33070829,8.32940708 8.5350888,8.94585526 7,8.74774411 C7.58243915,10.4413641 8.74826914,11.0052897 9.02426155,11.2024794 C7.48726935,14.1750681 8.1639266,23.3849329 8.1639266,23.3849329 L12.3133297,26 C12.3133297,26 11.552923,17.9014006 14.0387581,13.496883 C17.9635604,13.8175466 21.6190323,12.9209785 24.764394,11.7922057 C27.4424721,10.8320577 29.752243,9.70604919 31.5395318,9.02325682 C35.4281696,7.53696249 36.331331,8.6850857 37.0479595,9.87375258 C38.9818098,13.0849961 39.8373862,23.1757643 39.5756693,26 L43.723169,23.3536036 C44.2171002,16.5542448 44.6986594,10.8458794 39.0103607,6.14834156" id="Fill-17" fill="#FFFFFE"></path>
                <path d="M39.0103607,6.14834156 C37.884502,4.46485753 34.3032626,0.204085686 26.1148534,0.00505309077 C25.6523282,-0.00600427561 25.2031268,0.00136730198 24.764394,0.0244034819 C17.4287062,0.400353939 13.3088057,5.24808765 11.3768589,6.74359645 C9.33070829,8.32940708 8.5350888,8.94585526 7,8.74774411 C7.58243915,10.4413641 8.74826914,11.0052897 9.02426155,11.2024794 C7.48726935,14.1750681 8.1639266,23.3849329 8.1639266,23.3849329 L12.3133297,26 C12.3133297,26 11.552923,17.9014006 14.0387581,13.496883 C17.9635604,13.8175466 21.6190323,12.9209785 24.764394,11.7922057 C27.4424721,10.8320577 29.752243,9.70604919 31.5395318,9.02325682 C35.4281696,7.53696249 36.331331,8.6850857 37.0479595,9.87375258 C38.9818098,13.0849961 39.8373862,23.1757643 39.5756693,26 L43.723169,23.3536036 C44.2171002,16.5542448 44.6986594,10.8458794 39.0103607,6.14834156 Z" id="Stroke-18" stroke="#4D5662" stroke-width="1.5" stroke-linejoin="round"></path>
                <path d="M24.1216131,51 L22.2020164,53.1755302 L23.6028986,55.8692701 L22.7454415,74.4867211 M28.255081,74.4980676 L27.3971014,55.8692701 L28.7971014,53.1755302 L27.3132955,51" id="Fill-19" fill="#FFFFFE"></path>
                <path d="M24.1216131,51 L22.2020164,53.1755302 L23.6028986,55.8692701 L22.7426861,74.5465474 M28.2638797,74.6891086 L27.3971014,55.8692701 L28.7971014,53.1755302 L27.3132955,51" id="Stroke-20" stroke="#4D5662" stroke-width="1.5" stroke-linejoin="round"></path>
                <path d="M21.9702123,48.3133915 C20.9031597,47.3800298 18.2811143,44 18.2811143,44 L18,45.5405578 L21.0500482,52 L23.8907381,50.75495 L25,50.2686821 C25,50.2686821 22.6497829,48.9069619 21.9702123,48.3133915" id="Fill-21" fill="#FFFFFE"></path>
                <path d="M21.9702123,48.3133915 C20.9031597,47.3800298 18.2811143,44 18.2811143,44 L18,45.5405578 L21.0500482,52 L23.8907381,50.75495 L25,50.2686821 C25,50.2686821 22.6497829,48.9069619 21.9702123,48.3133915 Z" id="Stroke-22" stroke="#4D5662" stroke-width="1.5" stroke-linejoin="round"></path>
                <path d="M30.030402,48.3133915 C31.0962312,47.3800298 33.7194724,44 33.7194724,44 L34,45.5405578 L30.9493719,52 L28.109799,50.75495 L27,50.2686821 C27,50.2686821 29.3506281,48.9069619 30.030402,48.3133915" id="Fill-23" fill="#FFFFFE"></path>
                <path d="M30.030402,48.3133915 C31.0962312,47.3800298 33.7194724,44 33.7194724,44 L34,45.5405578 L30.9493719,52 L28.109799,50.75495 L27,50.2686821 C27,50.2686821 29.3506281,48.9069619 30.030402,48.3133915 Z" id="Stroke-24" stroke="#4D5662" stroke-width="1.5" stroke-linejoin="round"></path>
            </g>
        </g>
    </g>
</svg>