<?xml version="1.0" encoding="utf-8"?>
<!-- Generator: Adobe Illustrator 21.0.2, SVG Export Plug-In . SVG Version: 6.00 Build 0)  -->
<svg version="1.1" id="Layer_1" xmlns="http://www.w3.org/2000/svg" xmlns:xlink="http://www.w3.org/1999/xlink" x="0px" y="0px"
	 viewBox="0 0 95 94" style="enable-background:new 0 0 95 94;" xml:space="preserve">
<style type="text/css">
	.st0{fill:none;stroke:#515D6F;stroke-width:1.5;}
	.st1{fill:#515D6F;}
	.st2{fill:#DF0303;}
</style>
<path class="st0" d="M89.7,30.6c9,23.6-2.8,50-26.4,59.1S13.3,87,4.3,63.4S7,13.3,30.6,4.3c13.2-5,27.9-3.7,40,3.6"/>
<path id="Shape" class="st1" d="M46.9,32.7c-9.6,0-18.9,3.3-26.4,9.3c-1.1,0.9,0.3,2.7,1.4,1.8c14.6-11.8,35.4-11.8,50,0
	c1.1,0.9,2.5-0.9,1.4-1.8C65.8,36,56.5,32.7,46.9,32.7z M46.9,44.1c-6.5,0-12.8,2.6-17.5,7.2c-1,1,0.5,2.7,1.5,1.6
	c8.9-8.7,23.1-8.7,32,0c1,1,2.6-0.6,1.6-1.6C59.8,46.7,53.5,44.1,46.9,44.1L46.9,44.1z M46.9,55.5c-1.8,0-3.5,0.5-5.1,1.4
	c-1.5,0.9-2.8,2.2-3.7,3.7c-0.7,1.2,1.2,2.5,1.9,1.2c0.7-1.2,1.7-2.2,2.9-2.9c2.4-1.4,5.5-1.4,7.9,0c1.2,0.7,2.2,1.7,2.9,2.9
	c0.8,1.3,2.6,0,1.9-1.2c-0.9-1.5-2.2-2.8-3.7-3.7C50.5,56,48.7,55.5,46.9,55.5L46.9,55.5z M49.1,66.8c0,1.2-1,2.2-2.3,2.2
	c-1.2,0-2.2-1-2.2-2.3c0-1.2,1-2.2,2.2-2.2C48.2,64.6,49.2,65.6,49.1,66.8C49.2,66.9,49.2,66.9,49.1,66.8L49.1,66.8z"/>
<ellipse id="Oval-2" class="st0" cx="78.5" cy="21" rx="15.5" ry="15"/>
<g id="warning">
	<path id="Fill-4" class="st2" d="M78.4,11.8c-0.6,0-1.2,0.3-1.5,0.9l-6.6,11.7c-0.3,0.5-0.3,1.2,0,1.8c0.3,0.5,0.9,0.9,1.5,0.9H85
		c0.6,0,1.2-0.3,1.5-0.9c0.3-0.5,0.3-1.2,0-1.8l-6.6-11.7C79.6,12.1,79.1,11.8,78.4,11.8z M85,28.2H71.8c-1,0-2-0.6-2.5-1.5
		c-0.5-0.9-0.5-2,0-2.9L76,12.1c0.8-1.4,2.5-1.8,3.8-1.1c0.5,0.3,0.8,0.6,1.1,1.1l6.6,11.7c0.5,0.9,0.5,2,0,2.9
		C87,27.6,86,28.2,85,28.2z"/>
	<path id="Fill-2" class="st2" d="M78.2,24.5c-0.2,0-0.4-0.1-0.6-0.2c-0.2-0.2-0.2-0.4-0.2-0.6c0-0.2,0.1-0.4,0.2-0.6
		c0.3-0.3,0.8-0.3,1.2,0c0.1,0.2,0.2,0.4,0.2,0.6c0,0.2-0.1,0.4-0.2,0.6C78.6,24.4,78.4,24.5,78.2,24.5"/>
	<path id="Fill-1" class="st2" d="M77.3,20.9v-4.6c0.1-0.5,0.6-0.7,1.1-0.6c0.3,0.1,0.5,0.3,0.6,0.6v4.6c-0.1,0.5-0.6,0.7-1.1,0.6
		C77.6,21.4,77.3,21.2,77.3,20.9z"/>
</g>
</svg>
