<?xml version="1.0" encoding="UTF-8"?>
<svg width="93px" height="93px" viewBox="0 0 93 93" version="1.1" xmlns="http://www.w3.org/2000/svg" xmlns:xlink="http://www.w3.org/1999/xlink">
    <!-- Generator: Sketch 49.1 (51147) - http://www.bohemiancoding.com/sketch -->
    <title>payer</title>
    <desc>Created with Sketch.</desc>
    <defs></defs>
    <g id="error-pages" stroke="none" stroke-width="1" fill="none" fill-rule="evenodd">
        <g id="payer" transform="translate(-113.000000, -59.000000)" stroke-width="1.5">
            <g transform="translate(115.000000, 61.000000)">
                <g id="icon" stroke="#515D6F">
                    <circle id="Oval" cx="44.4708995" cy="44.4708995" r="45.2208995"></circle>
                </g>
                <g id="Page-1" transform="translate(19.000000, 17.000000)" stroke="#636B78">
                    <path d="M25.470878,32.4649317 C32.7345366,32.4649317 37.7117561,27.2032244 37.7117561,20.2240537 L37.7117561,13.229078 C37.7117561,6.24990732 32.7345366,0.9882 25.470878,0.9882 C18.2072195,0.9882 13.23,6.24990732 13.23,13.229078 L13.23,20.2240537 C13.23,27.2032244 18.2072195,32.4649317 25.470878,32.4649317 Z" id="Stroke-1"></path>
                    <path d="M12.9677707,33.6380488 L12.5357707,33.7816098 C5.45913659,36.1312683 0.987673171,43.2474146 0.987673171,50.418878 L0.987673171,53.9051707 L49.9538195,53.9051707 L49.9538195,50.418878 C49.9538195,43.2474146 44.9673805,36.1312683 37.8907463,33.7816098" id="Stroke-3"></path>
                </g>
            </g>
        </g>
    </g>
</svg>