<?xml version="1.0" encoding="UTF-8"?>
<svg width="92px" height="92px" viewBox="0 0 92 92" version="1.1" xmlns="http://www.w3.org/2000/svg" xmlns:xlink="http://www.w3.org/1999/xlink">
    <!-- Generator: Sketch 47.1 (45422) - http://www.bohemiancoding.com/sketch -->
    <title>settings</title>
    <desc>Created with Sketch.</desc>
    <defs></defs>
    <g id="settings-ios" stroke="none" stroke-width="1" fill="none" fill-rule="evenodd" stroke-linecap="round" stroke-linejoin="round">
        <g id="IOS-Settings-" transform="translate(-115.000000, -34.000000)" stroke="#FFFFFF" stroke-width="1.5">
            <path d="M161,125 C185.852814,125 206,104.852814 206,80 C206,55.1471863 185.852814,35 161,35 C136.147186,35 116,55.1471863 116,80 C116,104.852814 136.147186,125 161,125 Z M178.943478,84.2608696 L186,84.2608696 L186,77.7391304 L178.941304,77.7391304 C178.486957,75.8543478 177.743478,72.998913 176.76087,71.3869565 L181.752174,66.3956522 L175.602174,60.2478261 L170.609783,65.2391304 C168.997826,64.2565217 166.145652,63.5130435 164.26087,63.0586957 L164.26087,56 L157.73913,56 L157.73913,63.0586957 C155.854348,63.5130435 152.998913,64.2565217 151.38913,65.2391304 L146.395652,60.2478261 L140.246739,66.3956522 L145.23913,71.3891304 C144.255435,72.998913 143.513043,75.8543478 143.055435,77.7391304 L136,77.7391304 L136,84.2608696 L143.055435,84.2608696 C143.513043,86.1456522 144.255435,89.001087 145.23913,90.6108696 L140.245652,95.6032609 L146.395652,101.752174 L151.386957,96.7586957 C152.998913,97.7434783 155.854348,98.4869565 157.73913,98.9434783 L157.73913,106 L164.26087,106 L164.26087,98.9434783 C166.145652,98.4869565 169.001087,97.7434783 170.609783,96.7608696 L175.604348,101.752174 L181.752174,95.6032609 L176.76087,90.6108696 C177.743478,89.001087 178.486957,86.1456522 178.943478,84.2608696 Z M171,80.5 C171,85.7471667 166.523333,90 161,90 C155.476667,90 151,85.7471667 151,80.5 C151,75.2528333 155.476667,71 161,71 C166.523333,71 171,75.2528333 171,80.5 Z" id="settings"></path>
        </g>
    </g>
</svg>