<?xml version="1.0" encoding="utf-8"?>
<!-- Generator: Adobe Illustrator 21.0.2, SVG Export Plug-In . SVG Version: 6.00 Build 0)  -->
<svg version="1.1" id="Layer_1" xmlns="http://www.w3.org/2000/svg" xmlns:xlink="http://www.w3.org/1999/xlink" x="0px" y="0px"
	 viewBox="0 0 40 40" enable-background="new 0 0 40 40" xml:space="preserve">
<path fill="none" d="M8,8h24v24H8V8z"/>
<path fill="#39C900" d="M20,40C9,40,0,31,0,20S9,0,20,0s20,9,20,20S31,40,20,40z M20,1.9C10.1,1.9,1.9,10.1,1.9,20
	S10.1,38.1,20,38.1S38.1,29.9,38.1,20S29.9,1.9,20,1.9z M16.2,29.5L6.7,20l2.7-2.7l6.9,6.9L30.7,9.7l2.7,2.7L16.2,29.5z"/>
</svg>
