<?xml version="1.0" encoding="UTF-8"?>
<svg width="94px" height="94px" viewBox="0 0 94 94" version="1.1" xmlns="http://www.w3.org/2000/svg" xmlns:xlink="http://www.w3.org/1999/xlink">
    <!-- Generator: Sketch 49.2 (51160) - http://www.bohemiancoding.com/sketch -->
    <title>legal</title>
    <desc>Created with Sketch.</desc>
    <defs></defs>
    <g id="settings-ios" stroke="none" stroke-width="1" fill="none" fill-rule="evenodd">
        <g id="IOS-settings-legal" transform="translate(-114.000000, -35.000000)" stroke="#FFFFFF" stroke-width="1.5">
            <g id="legal" transform="translate(116.000000, 37.000000)">
                <circle id="Oval" opacity="0.722860031" cx="45" cy="45" r="45.75"></circle>
                <g id="icon" transform="translate(5.000000, 18.000000)">
                    <path d="M52.751773,7.44680851 L63.8297872,7.44680851 C63.8297872,4.40729483 60.9112057,2.12765957 57.3095035,2.12765957" id="Stroke-277"></path>
                    <path d="M20.212766,42.5531915 C20.212766,34.8381161 20.212766,23.3569258 20.212766,8.10962072 C20.212766,4.78561517 23.2514275,2.12765957 26.6562316,2.12765957 L58.5106383,2.12765957 C55.074696,2.12765957 52.4247254,4.91570305 52.4247254,8.2397086 L52.4247254,43.6423451 C52.4247254,46.9673913 49.2228567,50 45.8180525,50" id="Stroke-279"></path>
                    <path d="M40.7101224,43.2522796 L12.7659574,43.2522796 C13.7336065,46.6261398 16.9598364,50 19.8869747,50 L46.8085106,50 C43.8824719,50 41.428162,46.6261398 40.7101224,43.2522796 Z M23.7474262,10.6382979 L46.8085106,10.6382979 L23.7474262,10.6382979 Z M23.7474262,15.1367781 L46.8085106,15.1367781 L23.7474262,15.1367781 Z M23.7474262,19.6352584 L46.8085106,19.6352584 L23.7474262,19.6352584 Z M40.2196294,36.5045593 L46.8085106,36.5045593 L40.2196294,36.5045593 Z" id="Stroke-281"></path>
                </g>
            </g>
        </g>
    </g>
</svg>