<?xml version="1.0" encoding="UTF-8"?>
<svg width="94px" height="94px" viewBox="0 0 94 94" version="1.1" xmlns="http://www.w3.org/2000/svg" xmlns:xlink="http://www.w3.org/1999/xlink">
    <!-- Generator: Sketch 47.1 (45422) - http://www.bohemiancoding.com/sketch -->
    <title>login options page icon</title>
    <desc>Created with Sketch.</desc>
    <defs></defs>
    <g id="settings-ios" stroke="none" stroke-width="1" fill="none" fill-rule="evenodd">
        <g id="IOS-settings-login-options" transform="translate(-114.000000, -33.000000)" stroke="#FFFFFF" stroke-width="1.5">
            <g id="login-options-page-icon" transform="translate(116.000000, 35.000000)">
                <circle id="Oval" opacity="0.722860031" cx="45" cy="45" r="45.75"></circle>
                <g id="Group" transform="translate(25.000000, 19.000000)">
                    <g id="Oval-2">
                        <path d="M24.0320823,54.5418582 C18.9166772,54.5418582 13.5180313,52.1549634 9.80258725,45.3858431 C4.43974714,35.6153553 -2.41846574,29.2076829 0.847168355,25.9420488 C3.18334218,23.6058749 6.85128328,25.847099 10.0641646,28.8520418 L10.0641646,14.2952067 C10.0641646,12.0061261 11.9034733,10.1731779 14.1723757,10.1731779 C16.4570963,10.1731779 18.2805868,12.0186731 18.2805868,14.2952067 L18.2805868,22.4951249 C18.9672008,21.9806785 19.820668,21.676169 20.7455134,21.676169 C22.5243986,21.676169 24.0236771,22.7894403 24.6003588,24.3516396 C25.3246785,23.7105377 26.2763338,23.3194534 27.3186512,23.3194534 C29.6033718,23.3194534 31.4268623,25.1570161 31.4268623,27.4237645 C32.1134763,26.9322402 32.9669435,26.6293421 33.8917889,26.6293421 C36.1765095,26.6293421 38,28.4687435 38,30.7377599 L38,40.57394 C38,48.2882083 31.7463506,54.5418577 24.0320823,54.5418582 Z" id="one-finger-path"></path>
                        <path d="M14,17 C17.8659932,17 21,13.8659932 21,10 C21,6.13400675 17.8659932,3 14,3 C10.1340068,3 7,6.13400675 7,10" transform="translate(14.000000, 10.000000) rotate(-46.000000) translate(-14.000000, -10.000000) "></path>
                    </g>
                </g>
            </g>
        </g>
    </g>
</svg>