<?xml version="1.0" encoding="utf-8"?>
<!-- Generator: Adobe Illustrator 21.0.2, SVG Export Plug-In . SVG Version: 6.00 Build 0)  -->
<svg version="1.1" id="Layer_1" xmlns="http://www.w3.org/2000/svg" xmlns:xlink="http://www.w3.org/1999/xlink" x="0px" y="0px"
	 viewBox="0 0 100 100" style="enable-background:new 0 0 100 100;" xml:space="preserve">
<style type="text/css">
	.st0{fill:none;stroke:#FFFFFF;stroke-width:1.5366;stroke-linejoin:round;}
	.st1{fill:none;stroke:#FFFFFF;stroke-width:1.5366;}
	.st2{fill:#FFFFFF;stroke:#FFFFFF;stroke-miterlimit:10;}
</style>
<g id="face-id-_touch-id-">
	<g id="touch-id-IOs" transform="translate(-131.000000, -64.000000)">
		<g id="Group-2" transform="translate(132.000000, 66.000000)">
			<g id="Group" transform="translate(0.000000, 5.000000)">
				<path id="Stroke-1" class="st0" d="M45.7,31.2c0-4.1-3.3-7.3-7.3-7.3s-7.3,3.3-7.3,7.3v14.5c0,4.1,3.3,7.3,7.3,7.3
					s7.3-3.3,7.3-7.3v-8.5"/>
				<path id="Stroke-3" class="st0" d="M23.8,46.1c0,8.1,6.5,14.6,14.6,14.6S53,54.2,53,46.1V30.7c0-8.1-6.5-14.6-14.6-14.6
					s-14.6,6.5-14.6,14.6v9.5"/>
				<path id="Stroke-5" class="st0" d="M38.4,68.4c7.1,0,13.1-3.3,17.3-8.5c3.9-4.8,8.9-4.6,11.8-4.6"/>
				<path id="Stroke-7" class="st0" d="M67.5,47.2c-7.4,0-7.3-5.1-7.3-5.4V30.1c0-12.1-9.8-21.9-21.9-21.9"/>
				<path id="Stroke-9" class="st0" d="M16.5,49.1v-19c0-12.1,9.8-21.9,21.9-21.9"/>
				<path id="Stroke-11" class="st0" d="M38.4,76.1c8.7,0,17-4.3,21.9-9.9c3.1-3.7,5.1-3.3,7.2-3.3"/>
				<path id="Stroke-13" class="st0" d="M38.4,68.4c-7.1,0-13.1-3.3-17.3-8.5c-1.4-1.8-3-2.9-4.6-3.5"/>
				<path id="Stroke-15" class="st0" d="M38.4,76.1c-8.7,0-17-4.3-21.9-9.9c-3.1-3.7-5.1-3.3-7.2-3.3"/>
				<path id="Stroke-17" class="st0" d="M67.5,40.4V29.5c0-1,0-1.9-0.1-2.9 M56.6,6.8c-5-4-11.3-6.4-18.2-6.4
					c-16.1,0-29.1,13-29.1,29.1v25.8"/>
				<path id="Stroke-19" class="st0" d="M38.4,83.8c4.3,0,8.4-0.7,12.3-2.1"/>
				<path id="Stroke-21" class="st0" d="M38.4,91.5c3.6,0,7.1-0.4,10.4-1.2"/>
				<path id="Stroke-23" class="st0" d="M38.4,83.8c-9.4,0-18-3.6-24.5-9.5"/>
				<path id="Stroke-25" class="st0" d="M38.4,91.5c-3.6,0-7.1-0.4-10.4-1.2"/>
				<path id="Stroke-27" class="st0" d="M38.4,31.4v14.2"/>
			</g>
			<circle id="Oval" class="st1" cx="72.6" cy="15.6" r="16.1"/>
			<path id="Path" class="st2" d="M70.2,20.9L65.3,16c-0.1-0.1-0.2-0.2-0.4-0.2c-0.3,0-0.5,0.2-0.5,0.5c0,0.1,0.1,0.3,0.2,0.4
				l5.3,5.3c0.1,0.1,0.2,0.2,0.4,0.2c0.2,0,0.3-0.1,0.4-0.2l0,0l8.8-9.2c0,0,0,0,0,0l0.8-0.8c0,0,0,0,0,0l1.5-1.6l0,0
				c0.1-0.1,0.1-0.2,0.1-0.4c0-0.3-0.2-0.5-0.5-0.5c-0.2,0-0.3,0.1-0.4,0.2l0,0l-1.4,1.4c0,0,0,0,0,0l-0.7,0.8c0,0,0,0,0,0
				L70.2,20.9z"/>
		</g>
	</g>
</g>
</svg>
