<?xml version="1.0" encoding="UTF-8"?>
<svg width="20px" height="15px" viewBox="0 0 20 15" version="1.1" xmlns="http://www.w3.org/2000/svg" xmlns:xlink="http://www.w3.org/1999/xlink">
    <!-- Generator: Sketch 47.1 (45422) - http://www.bohemiancoding.com/sketch -->
    <title>Path</title>
    <desc>Created with Sketch.</desc>
    <defs></defs>
    <g id="settings-ios" stroke="none" stroke-width="1" fill="none" fill-rule="evenodd">
        <g id="IOS-settings-Language--Copy" transform="translate(-285.000000, -98.000000)" fill="#FF4800">
            <path d="M291.656589,111.072248 L286.034574,105.450233 C285.925116,105.340775 285.773488,105.272713 285.606047,105.272713 C285.271163,105.272713 285,105.544341 285,105.878605 C285,106.046357 285.067442,106.197829 285.177674,106.307752 L291.23814,112.367752 C291.348217,112.477984 291.49907,112.545271 291.666667,112.545271 C291.839535,112.545271 291.992868,112.471938 292.103411,112.355969 L292.105116,112.358295 L302.225426,101.755969 C302.225891,101.756899 302.227132,101.75814 302.227752,101.75938 L303.093023,100.851473 C303.092403,100.850853 303.091783,100.849612 303.091163,100.848527 L304.832558,99.0243411 L304.830698,99.0226357 C304.934264,98.9144186 305,98.7682171 305,98.6060465 C305,98.2716279 304.728837,98 304.393953,98 C304.221085,98 304.067752,98.0739535 303.957054,98.1893023 L303.955969,98.1875969 L302.398295,99.8193798 C302.397054,99.8175194 302.395814,99.815814 302.394574,99.8145736 L301.549457,100.70062 C301.550698,100.702326 301.551318,100.704031 301.552403,100.705271 L291.656589,111.072248 Z" id="Path"></path>
        </g>
    </g>
</svg>