<?xml version="1.0" encoding="UTF-8"?>
<svg width="93px" height="93px" viewBox="0 0 93 93" version="1.1" xmlns="http://www.w3.org/2000/svg" xmlns:xlink="http://www.w3.org/1999/xlink">
    <!-- Generator: Sketch 49.1 (51147) - http://www.bohemiancoding.com/sketch -->
    <title>icon</title>
    <desc>Created with Sketch.</desc>
    <defs></defs>
    <g id="error-pages" stroke="none" stroke-width="1" fill="none" fill-rule="evenodd">
        <g id="version-update-copy-3" transform="translate(-113.000000, -59.000000)">
            <g id="icon" transform="translate(115.000000, 61.000000)">
                <circle id="Oval" stroke="#636B78" stroke-width="1.5" cx="44.4708995" cy="44.4708995" r="45.2208995"></circle>
                <path d="M46.986,44.001 C47.539,44.001 47.986,43.554 47.986,43.001 C47.986,42.448 47.539,42.001 46.986,42.001 C46.433,42.001 45.986,42.448 45.986,43.001 C45.986,43.554 46.433,44.001 46.986,44.001 Z M43.986,39.001 C43.433,39.001 42.986,39.448 42.986,40.001 C42.986,40.554 43.433,41.001 43.986,41.001 C44.539,41.001 44.986,40.554 44.986,40.001 C44.986,39.448 44.539,39.001 43.986,39.001 Z M49.986,47.001 C50.539,47.001 50.986,46.554 50.986,46.001 C50.986,45.448 50.539,45.001 49.986,45.001 C49.433,45.001 48.986,45.448 48.986,46.001 C48.986,46.554 49.433,47.001 49.986,47.001 Z M55.986,33.001 C56.539,33.001 56.986,33.448 56.986,34.001 C56.986,34.554 56.539,35.001 55.986,35.001 C55.433,35.001 54.986,34.554 54.986,34.001 C54.986,33.448 55.433,33.001 55.986,33.001 Z M55.986,37.001 C57.643,37.001 58.986,35.657 58.986,34.001 C58.986,32.345 57.643,31.001 55.986,31.001 C54.329,31.001 52.986,32.345 52.986,34.001 C52.986,35.657 54.329,37.001 55.986,37.001 Z M56.606,44.709 C56.211,45.105 55.588,45.756 54.865,46.513 C53.577,47.86 51.594,49.933 50.417,51.018 L38.984,39.585 C40.068,38.407 42.141,36.425 43.489,35.138 C44.246,34.414 44.897,33.792 45.293,33.396 C50.703,27.985 61.102,25.023 64.991,25.001 C64.984,28.24 62.255,39.061 56.606,44.709 Z M49.02,52.666 C48.289,55.335 47.327,57.778 46.259,59.74 C45.82,58.556 45.193,57.22 44.3,55.818 C43.927,55.233 43.286,54.893 42.613,54.893 C42.455,54.893 42.295,54.911 42.136,54.95 C41.747,55.046 41.349,55.095 40.955,55.095 C39.484,55.095 38.05,54.438 36.807,53.194 C35.221,51.608 34.597,49.716 35.051,47.865 C35.256,47.032 34.906,46.162 34.183,45.702 C32.781,44.809 31.446,44.183 30.261,43.743 C32.223,42.675 34.666,41.713 37.336,40.981 C37.388,40.968 37.432,40.933 37.484,40.913 L49.089,52.519 C49.07,52.569 49.035,52.612 49.02,52.666 Z M66.631,23.34 C66.404,23.112 65.844,23 65.036,23 C60.81,23 49.78,26.079 43.879,31.981 C42.487,33.373 37.878,37.616 36.807,39.053 C33.345,40.001 28.304,41.898 25.494,44.709 C25.494,44.709 28.924,44.723 33.109,47.389 C32.501,49.869 33.272,52.487 35.393,54.608 C37.046,56.261 39,57.095 40.955,57.095 C41.509,57.095 42.064,57.027 42.613,56.893 C45.279,61.078 45.293,64.508 45.293,64.508 C48.103,61.697 50.001,56.656 50.949,53.194 C52.385,52.124 56.629,47.515 58.02,46.123 C65.05,39.094 68.045,24.754 66.631,23.34 Z M26.582,63.42 L30.197,54.356 C30.683,55.255 31.285,56.11 31.992,56.901 C33.06,58.1 34.298,59.079 35.638,59.808 L26.582,63.42 Z M30.751,47.568 L23,67.002 L42.433,59.251 C42.087,59.291 41.742,59.31 41.397,59.31 C35.452,59.31 30.068,53.561 30.751,47.568 Z" id="Page-1" fill="#636B78"></path>
            </g>
        </g>
    </g>
</svg>