<?xml version="1.0" encoding="UTF-8"?>
<svg width="94px" height="94px" viewBox="0 0 94 94" version="1.1" xmlns="http://www.w3.org/2000/svg" xmlns:xlink="http://www.w3.org/1999/xlink">
    <!-- Generator: Sketch 48.2 (47327) - http://www.bohemiancoding.com/sketch -->
    <title>Group 3</title>
    <desc>Created with Sketch.</desc>
    <defs></defs>
    <g id="blocked-account" stroke="none" stroke-width="1" fill="none" fill-rule="evenodd" transform="translate(-114.000000, -66.000000)">
        <g id="Group-3" transform="translate(116.071429, 68.071429)">
            <g id="icon-copy" stroke="#515D6F" stroke-width="1.5">
                <circle id="Oval" cx="45" cy="45" r="45.75"></circle>
            </g>
            <g id="warning" transform="translate(19.928571, 20.928571)">
                <path d="M27.1083533,0.957571051 L49.0108735,39.5183299 C49.8291773,40.959005 49.3246457,42.7902693 47.8839706,43.6085731 C47.4322973,43.8651236 46.9217491,44 46.4023004,44 L2.59725997,44 C0.94040572,44 -0.402740031,42.6568542 -0.402740031,41 C-0.402740031,40.4805513 -0.267863665,39.9700032 -0.0113131253,39.5183299 L21.8912071,0.957571051 C22.7095109,-0.483104088 24.5407752,-0.987635726 25.9814503,-0.169331902 C26.4518131,0.0978342595 26.8411871,0.487208289 27.1083533,0.957571051 Z" id="Triangle" stroke="#515D6F" stroke-width="2"></path>
                <path d="M24.5,16 C23.1206897,16 22,16.9593655 22,18.1425467 L23.25,29.9287266 C23.25,30.5208605 23.8103448,31 24.5,31 C25.1909229,31 25.7512677,30.5208605 25.7512677,29.9287266 L27,18.1425467 C27,16.9593655 25.8805781,16 24.5,16 Z M24.5,34 C23.1206897,34 22,34.8945233 22,36 C22,37.1044625 23.1206897,38 24.5,38 C25.8805781,38 27,37.1044625 27,36 C27,34.8945233 25.8805781,34 24.5,34 Z" id="Fill-1" fill="#515D6F"></path>
            </g>
        </g>
    </g>
</svg>